<svg width="11" height="14" viewBox="0 0 11 14" fill="none" xmlns="http://www.w3.org/2000/svg">
<path d="M5.19702 9.48968C3.80363 9.10058 2.55415 8.80158 1.16666 9.37702V13.1664C1.16666 13.4425 0.942799 13.6664 0.666656 13.6664C0.390514 13.6664 0.166656 13.4425 0.166656 13.1664V1.93248C0.166656 1.49723 0.414411 1.062 0.861621 0.884636C2.51915 0.227256 4.00994 0.585905 5.34893 0.956919C5.43675 0.981251 5.5238 1.00557 5.61016 1.0297C6.87557 1.38323 7.99341 1.69554 9.20948 1.40086C9.92454 1.22758 10.8333 1.69562 10.8333 2.59117V8.64105C10.8333 9.0763 10.5856 9.51153 10.1384 9.68889C8.3824 10.3853 6.80248 9.94102 5.39759 9.54595C5.33033 9.52703 5.26347 9.50823 5.19702 9.48968Z" fill="#2F72E2"/>
</svg>
